<?xml version="1.0" encoding="UTF-8"?>
<svg xmlns="http://www.w3.org/2000/svg" xmlns:xlink="http://www.w3.org/1999/xlink" width="30pt" height="30.000001pt" viewBox="0 0 30 30.000001" version="1.2">
<defs>
<clipPath id="clip1">
  <path d="M 14 2.835938 L 26 2.835938 L 26 14 L 14 14 Z M 14 2.835938 "/>
</clipPath>
<clipPath id="clip2">
  <path d="M 4.429688 14.53125 L 25.261719 14.53125 L 25.261719 26.0625 L 4.429688 26.0625 Z M 4.429688 14.53125 "/>
</clipPath>
<clipPath id="clip3">
  <path d="M 0.691406 7 L 29 7 L 29 17 L 0.691406 17 Z M 0.691406 7 "/>
</clipPath>
</defs>
<g id="surface1">
<path style=" stroke:none;fill-rule:nonzero;fill:rgb(5.099487%,48.239136%,83.918762%);fill-opacity:1;" d="M 5.652344 13.667969 C 5.140625 13.488281 4.6875 13.296875 4.292969 13.097656 C 4.269531 12.695312 4.257812 12.296875 4.261719 11.898438 C 4.261719 11.167969 4.300781 10.445312 4.390625 9.734375 C 4.484375 9.027344 4.621094 8.328125 4.84375 7.660156 C 4.949219 7.324219 5.082031 6.996094 5.234375 6.683594 C 5.386719 6.367188 5.570312 6.066406 5.78125 5.785156 C 6.34375 5.027344 7.144531 4.515625 8.035156 4.339844 L 8.15625 4.3125 L 8.273438 4.300781 C 8.585938 4.257812 8.910156 4.285156 9.210938 4.351562 C 9.519531 4.421875 9.800781 4.558594 10.046875 4.714844 C 10.296875 4.871094 10.507812 5.0625 10.699219 5.25 C 11.078125 5.632812 11.378906 6.03125 11.65625 6.402344 C 11.933594 6.773438 12.191406 7.125 12.445312 7.4375 C 12.703125 7.75 12.957031 8.027344 13.214844 8.261719 C 13.730469 8.734375 14.269531 9.007812 14.730469 9.152344 C 15.195312 9.300781 15.578125 9.316406 15.835938 9.335938 C 16.097656 9.335938 16.234375 9.335938 16.234375 9.335938 C 16.234375 9.335938 16.097656 9.359375 15.839844 9.398438 C 15.578125 9.417969 15.1875 9.457031 14.683594 9.367188 C 14.183594 9.28125 13.574219 9.0625 12.964844 8.621094 C 12.660156 8.402344 12.359375 8.136719 12.058594 7.839844 C 11.761719 7.539062 11.464844 7.210938 11.160156 6.871094 C 10.855469 6.53125 10.539062 6.183594 10.1875 5.886719 C 9.839844 5.59375 9.453125 5.363281 9.042969 5.304688 C 8.117188 5.167969 7.191406 5.726562 6.664062 6.519531 C 6.515625 6.738281 6.382812 6.976562 6.269531 7.238281 C 6.160156 7.496094 6.0625 7.773438 5.980469 8.0625 C 5.8125 8.636719 5.714844 9.257812 5.644531 9.902344 C 5.582031 10.546875 5.558594 11.210938 5.566406 11.890625 C 5.570312 12.472656 5.605469 13.066406 5.652344 13.667969 "/>
<g clip-path="url(#clip1)" clip-rule="nonzero">
<path style=" stroke:none;fill-rule:nonzero;fill:rgb(5.099487%,48.239136%,83.918762%);fill-opacity:1;" d="M 24.003906 13.074219 C 24.03125 12.238281 24.015625 11.417969 23.960938 10.621094 C 23.859375 9.207031 23.625 7.847656 23.171875 6.6875 C 22.605469 5.105469 21.347656 3.859375 19.71875 3.820312 C 19.605469 3.8125 19.5 3.835938 19.394531 3.847656 C 19.34375 3.863281 19.292969 3.875 19.242188 3.886719 L 19.207031 3.898438 L 19.167969 3.914062 L 19.097656 3.941406 C 18.90625 4.019531 18.726562 4.128906 18.570312 4.277344 C 18.25 4.570312 17.996094 4.957031 17.765625 5.335938 C 17.539062 5.71875 17.328125 6.097656 17.105469 6.4375 C 16.882812 6.78125 16.652344 7.089844 16.410156 7.339844 C 16.167969 7.597656 15.917969 7.796875 15.671875 7.933594 C 15.640625 7.953125 15.613281 7.972656 15.582031 7.988281 C 15.554688 8.003906 15.523438 8.019531 15.492188 8.03125 C 15.433594 8.0625 15.375 8.089844 15.320312 8.113281 C 15.207031 8.15625 15.097656 8.199219 14.996094 8.230469 C 14.894531 8.253906 14.800781 8.28125 14.714844 8.296875 C 14.628906 8.3125 14.546875 8.324219 14.476562 8.335938 C 14.40625 8.347656 14.34375 8.347656 14.292969 8.351562 C 14.238281 8.355469 14.195312 8.355469 14.15625 8.359375 C 14.085938 8.363281 14.046875 8.363281 14.046875 8.363281 C 14.046875 8.363281 14.085938 8.355469 14.15625 8.34375 C 14.191406 8.335938 14.234375 8.328125 14.289062 8.316406 C 14.339844 8.308594 14.402344 8.296875 14.46875 8.273438 C 14.535156 8.253906 14.613281 8.234375 14.695312 8.210938 C 14.773438 8.179688 14.863281 8.140625 14.957031 8.105469 C 15.050781 8.066406 15.148438 8.011719 15.253906 7.957031 C 15.300781 7.925781 15.351562 7.894531 15.40625 7.859375 C 15.433594 7.84375 15.457031 7.824219 15.484375 7.808594 C 15.511719 7.789062 15.535156 7.769531 15.5625 7.746094 C 15.992188 7.433594 16.394531 6.898438 16.75 6.203125 C 16.929688 5.851562 17.101562 5.460938 17.304688 5.046875 C 17.507812 4.632812 17.742188 4.175781 18.117188 3.761719 C 18.304688 3.554688 18.539062 3.371094 18.804688 3.230469 L 18.90625 3.179688 L 18.957031 3.15625 L 19.011719 3.136719 C 19.082031 3.113281 19.152344 3.085938 19.222656 3.0625 C 19.867188 2.839844 20.597656 2.980469 21.230469 3.171875 C 21.308594 3.199219 21.378906 3.230469 21.453125 3.257812 C 22.046875 3.492188 22.597656 3.902344 23.0625 4.414062 C 23.121094 4.476562 23.171875 4.546875 23.230469 4.613281 L 23.3125 4.710938 C 23.339844 4.746094 23.363281 4.78125 23.390625 4.816406 C 23.699219 5.238281 23.980469 5.703125 24.183594 6.195312 C 24.769531 7.511719 25.070312 8.984375 25.222656 10.5 C 25.28125 11.136719 25.3125 11.785156 25.316406 12.441406 C 24.925781 12.664062 24.488281 12.875 24.003906 13.074219 "/>
</g>
<g clip-path="url(#clip2)" clip-rule="nonzero">
<path style=" stroke:none;fill-rule:nonzero;fill:rgb(5.099487%,48.239136%,83.918762%);fill-opacity:1;" d="M 25.25 14.53125 C 25.238281 14.65625 25.226562 14.777344 25.21875 14.902344 C 25.210938 14.996094 25.203125 15.097656 25.191406 15.191406 C 25.1875 15.226562 25.183594 15.261719 25.179688 15.292969 C 25.019531 16.851562 24.742188 18.359375 24.34375 19.78125 C 24.140625 20.507812 23.910156 21.214844 23.636719 21.890625 C 23.363281 22.570312 23.058594 23.21875 22.691406 23.824219 C 22.601562 23.976562 22.5 24.125 22.402344 24.269531 C 22.300781 24.414062 22.199219 24.554688 22.089844 24.691406 C 21.867188 24.964844 21.628906 25.222656 21.347656 25.445312 C 21.070312 25.667969 20.757812 25.855469 20.410156 25.964844 C 19.914062 26.125 19.347656 26.089844 18.863281 25.886719 C 18.707031 25.816406 18.558594 25.734375 18.417969 25.636719 C 18.148438 25.4375 17.925781 25.191406 17.753906 24.9375 C 17.578125 24.683594 17.441406 24.421875 17.328125 24.164062 C 17.214844 23.902344 17.121094 23.648438 17.042969 23.394531 C 16.882812 22.894531 16.765625 22.414062 16.660156 21.964844 C 16.550781 21.515625 16.457031 21.09375 16.359375 20.703125 C 16.167969 19.925781 15.960938 19.269531 15.683594 18.800781 C 15.546875 18.566406 15.394531 18.378906 15.238281 18.246094 C 15.082031 18.117188 14.925781 18.035156 14.796875 17.992188 C 14.730469 17.96875 14.675781 17.953125 14.625 17.941406 C 14.59375 17.941406 14.554688 17.941406 14.511719 17.945312 C 14.460938 17.945312 14.40625 17.945312 14.34375 17.957031 C 14.214844 17.96875 14.054688 17.996094 13.878906 18.058594 C 13.707031 18.121094 13.511719 18.222656 13.324219 18.375 C 12.941406 18.675781 12.605469 19.199219 12.324219 19.867188 C 12.179688 20.199219 12.046875 20.570312 11.90625 20.96875 C 11.765625 21.363281 11.625 21.792969 11.449219 22.242188 C 11.269531 22.6875 11.066406 23.164062 10.738281 23.628906 C 10.570312 23.855469 10.367188 24.082031 10.117188 24.265625 C 9.160156 24.96875 8.144531 24.675781 7.421875 23.792969 C 7.015625 23.289062 6.703125 22.730469 6.421875 22.144531 C 6.144531 21.5625 5.902344 20.949219 5.683594 20.316406 C 5.464844 19.683594 5.273438 19.027344 5.101562 18.351562 C 4.902344 17.574219 4.734375 16.769531 4.601562 15.945312 C 4.582031 15.824219 4.5625 15.703125 4.542969 15.582031 C 4.523438 15.449219 4.503906 15.320312 4.488281 15.191406 C 4.921875 15.347656 5.386719 15.492188 5.878906 15.621094 C 5.894531 15.75 5.917969 15.875 5.9375 16 C 5.957031 16.121094 5.972656 16.234375 5.996094 16.351562 C 6.089844 16.917969 6.199219 17.472656 6.324219 18.015625 C 6.46875 18.660156 6.632812 19.289062 6.816406 19.894531 C 6.996094 20.5 7.199219 21.082031 7.425781 21.628906 C 7.652344 22.171875 7.910156 22.6875 8.203125 23.101562 C 8.347656 23.304688 8.507812 23.484375 8.65625 23.589844 C 8.730469 23.644531 8.796875 23.671875 8.851562 23.6875 C 8.863281 23.6875 8.875 23.691406 8.886719 23.695312 L 8.878906 23.699219 L 9.015625 23.699219 L 9.046875 23.695312 C 9.070312 23.691406 9.089844 23.695312 9.113281 23.691406 C 9.308594 23.671875 9.492188 23.609375 9.664062 23.503906 C 9.835938 23.402344 9.992188 23.257812 10.136719 23.089844 C 10.421875 22.753906 10.648438 22.339844 10.851562 21.9375 C 11.253906 21.117188 11.578125 20.316406 11.953125 19.65625 C 12.140625 19.324219 12.335938 19.027344 12.550781 18.777344 C 12.757812 18.527344 12.984375 18.328125 13.210938 18.191406 C 13.4375 18.050781 13.65625 17.972656 13.847656 17.933594 C 14.042969 17.894531 14.210938 17.890625 14.339844 17.894531 C 14.382812 17.894531 14.421875 17.898438 14.460938 17.902344 C 14.46875 17.902344 14.476562 17.902344 14.484375 17.902344 C 14.558594 17.898438 14.667969 17.902344 14.808594 17.929688 C 14.949219 17.960938 15.121094 18.019531 15.304688 18.140625 C 15.492188 18.257812 15.675781 18.4375 15.851562 18.667969 C 16.203125 19.132812 16.488281 19.796875 16.757812 20.566406 C 16.894531 20.949219 17.027344 21.363281 17.171875 21.796875 C 17.316406 22.230469 17.46875 22.683594 17.65625 23.136719 C 17.84375 23.589844 18.066406 24.042969 18.367188 24.417969 C 18.515625 24.601562 18.683594 24.757812 18.871094 24.871094 C 18.960938 24.929688 19.0625 24.96875 19.160156 25.003906 C 19.34375 25.070312 19.542969 25.085938 19.734375 25.078125 C 20.109375 25.042969 20.433594 24.847656 20.71875 24.589844 C 20.914062 24.417969 21.09375 24.203125 21.265625 23.964844 C 21.351562 23.851562 21.429688 23.71875 21.511719 23.597656 C 21.589844 23.464844 21.671875 23.335938 21.742188 23.195312 C 22.042969 22.648438 22.296875 22.042969 22.527344 21.40625 C 22.757812 20.773438 22.953125 20.101562 23.128906 19.410156 C 23.421875 18.257812 23.640625 17.039062 23.796875 15.789062 C 23.808594 15.660156 23.824219 15.535156 23.839844 15.40625 C 23.851562 15.285156 23.867188 15.167969 23.878906 15.046875 C 24.363281 14.886719 24.820312 14.714844 25.25 14.53125 "/>
</g>
<g clip-path="url(#clip3)" clip-rule="nonzero">
<path style=" stroke:none;fill-rule:nonzero;fill:rgb(51.368713%,67.449951%,83.529663%);fill-opacity:1;" d="M 28.914062 10.914062 C 28.980469 12.257812 27.582031 13.535156 25.25 14.53125 C 24.820312 14.714844 24.363281 14.886719 23.878906 15.046875 C 21.5 15.839844 18.445312 16.375 15.097656 16.5 C 14.601562 16.519531 14.109375 16.527344 13.625 16.527344 C 10.699219 16.527344 8.019531 16.195312 5.878906 15.621094 C 5.386719 15.492188 4.921875 15.347656 4.488281 15.191406 C 2.238281 14.382812 0.839844 13.253906 0.777344 11.96875 C 0.714844 10.746094 1.867188 9.574219 3.839844 8.625 C 2.523438 9.414062 1.777344 10.324219 1.828125 11.269531 C 1.878906 12.273438 2.804688 13.171875 4.34375 13.875 C 4.757812 14.070312 5.222656 14.246094 5.722656 14.40625 C 7.816406 15.082031 10.597656 15.480469 13.683594 15.480469 C 14.132812 15.480469 14.585938 15.472656 15.046875 15.453125 C 18.535156 15.324219 21.679688 14.710938 23.972656 13.816406 C 24.457031 13.628906 24.90625 13.425781 25.308594 13.214844 C 26.921875 12.371094 27.847656 11.359375 27.796875 10.300781 C 27.746094 9.351562 26.914062 8.5 25.527344 7.8125 C 27.582031 8.613281 28.851562 9.691406 28.914062 10.914062 "/>
</g>
</g>
</svg>
