<?xml version="1.0" encoding="UTF-8"?>
<svg xmlns="http://www.w3.org/2000/svg" xmlns:xlink="http://www.w3.org/1999/xlink" width="30pt" height="30.000001pt" viewBox="0 0 30 30.000001" version="1.2">
<defs>
<clipPath id="clip1">
  <path d="M 4.0625 3 L 25 3 L 25 26.542969 L 4.0625 26.542969 Z M 4.0625 3 "/>
</clipPath>
</defs>
<g id="surface1">
<g clip-path="url(#clip1)" clip-rule="nonzero">
<path style=" stroke:none;fill-rule:nonzero;fill:rgb(17.248535%,19.219971%,21.569824%);fill-opacity:1;" d="M 24.445312 6.316406 C 22.609375 2.605469 18.761719 4.179688 16.21875 5.21875 C 15.289062 5.601562 14.40625 5.960938 13.851562 5.996094 C 13.375 5.785156 12.917969 5.5625 12.472656 5.34375 C 9.839844 4.0625 7.109375 2.734375 5.335938 6.316406 C 4.074219 8.863281 5.269531 14.578125 7.539062 17.078125 C 7.5625 23.367188 8.511719 26.554688 10.367188 26.554688 C 11.84375 26.554688 12.226562 24.683594 12.632812 22.707031 C 13.132812 20.277344 13.585938 18.5625 14.890625 18.5625 C 16.199219 18.5625 16.652344 20.277344 17.148438 22.707031 C 17.554688 24.683594 17.9375 26.554688 19.417969 26.554688 C 21.277344 26.554688 22.226562 23.347656 22.242188 17.019531 C 24.320312 13.800781 25.78125 9.011719 24.445312 6.316406 Z M 21.207031 16.53125 C 21.144531 16.628906 21.113281 16.734375 21.113281 16.847656 C 21.113281 22.472656 20.257812 25.414062 19.417969 25.414062 C 18.859375 25.414062 18.527344 23.785156 18.257812 22.476562 C 17.796875 20.222656 17.21875 17.417969 14.890625 17.417969 C 12.5625 17.417969 11.988281 20.222656 11.527344 22.476562 C 11.257812 23.785156 10.921875 25.414062 10.367188 25.414062 C 9.523438 25.414062 8.667969 22.472656 8.667969 16.847656 C 8.667969 16.691406 8.613281 16.554688 8.503906 16.445312 C 6.367188 14.285156 5.378906 8.785156 6.347656 6.828125 C 7.570312 4.363281 9.035156 4.941406 11.980469 6.371094 C 13.824219 7.269531 15.910156 8.285156 18.285156 8.285156 C 18.441406 8.285156 18.574219 8.230469 18.683594 8.117188 C 18.796875 8.003906 18.851562 7.871094 18.851562 7.714844 C 18.851562 7.554688 18.796875 7.421875 18.683594 7.308594 C 18.574219 7.199219 18.441406 7.140625 18.285156 7.140625 C 17.371094 7.128906 16.480469 6.980469 15.617188 6.6875 C 15.941406 6.566406 16.285156 6.425781 16.640625 6.277344 C 19.714844 5.023438 22.164062 4.265625 23.433594 6.828125 C 24.441406 8.855469 23.460938 13.121094 21.207031 16.53125 Z M 21.207031 16.53125 "/>
</g>
</g>
</svg>
