<?xml version="1.0" encoding="UTF-8"?>
<svg xmlns="http://www.w3.org/2000/svg" xmlns:xlink="http://www.w3.org/1999/xlink" width="30pt" height="30.000001pt" viewBox="0 0 30 30.000001" version="1.2">
<defs>
<clipPath id="clip1">
  <path d="M 1.816406 0.808594 L 27.945312 0.808594 L 27.945312 28.390625 L 1.816406 28.390625 Z M 1.816406 0.808594 "/>
</clipPath>
</defs>
<g id="surface1">
<g clip-path="url(#clip1)" clip-rule="nonzero">
<path style=" stroke:none;fill-rule:nonzero;fill:rgb(100%,100%,100%);fill-opacity:1;" d="M 27.929688 14.722656 C 27.941406 14.679688 27.945312 14.640625 27.945312 14.597656 L 27.945312 5.757812 C 27.945312 5.554688 27.859375 5.40625 27.6875 5.304688 L 20.148438 0.886719 C 20.109375 0.863281 20.066406 0.84375 20.023438 0.832031 C 19.9375 0.8125 19.851562 0.8125 19.765625 0.832031 C 19.722656 0.84375 19.679688 0.863281 19.640625 0.886719 L 14.882812 3.671875 L 10.128906 0.886719 C 10.089844 0.863281 10.046875 0.84375 10.003906 0.832031 C 9.917969 0.8125 9.832031 0.8125 9.746094 0.832031 C 9.703125 0.84375 9.664062 0.863281 9.625 0.886719 L 2.074219 5.304688 C 1.902344 5.40625 1.816406 5.554688 1.816406 5.757812 L 1.816406 14.597656 C 1.816406 14.640625 1.820312 14.679688 1.832031 14.722656 L 1.832031 14.753906 C 1.839844 14.785156 1.851562 14.8125 1.867188 14.839844 C 1.867188 14.839844 1.867188 14.839844 1.867188 14.859375 L 9.410156 28.121094 C 9.507812 28.296875 9.65625 28.382812 9.855469 28.382812 C 10.054688 28.382812 10.203125 28.296875 10.300781 28.121094 L 14.882812 20.097656 L 19.445312 28.121094 C 19.542969 28.296875 19.691406 28.382812 19.890625 28.382812 C 20.089844 28.382812 20.238281 28.296875 20.335938 28.121094 L 27.878906 14.859375 L 27.878906 14.839844 C 27.890625 14.8125 27.902344 14.78125 27.914062 14.753906 Z M 14.367188 8.191406 L 11.28125 2.753906 L 14.367188 4.566406 Z M 14.289062 10.136719 L 12.050781 14.078125 L 3.21875 14.078125 L 9.871094 2.382812 Z M 14.882812 11.183594 L 16.816406 14.589844 L 14.882812 17.984375 L 12.945312 14.589844 Z M 17.710938 14.070312 L 15.476562 10.144531 L 19.890625 2.382812 L 26.539062 14.078125 Z M 26.914062 12.644531 L 21.296875 2.761719 L 26.914062 6.058594 Z M 18.484375 2.765625 L 15.398438 8.195312 L 15.398438 4.574219 Z M 8.46875 2.765625 L 2.84375 12.652344 L 2.84375 6.058594 Z M 9.871094 26.816406 L 3.21875 15.121094 L 12.050781 15.121094 L 14.289062 19.039062 Z M 19.902344 26.816406 L 15.476562 19.050781 L 17.710938 15.132812 L 26.539062 15.132812 Z M 19.902344 26.816406 "/>
</g>
</g>
</svg>
