<?xml version="1.0" encoding="UTF-8"?>
<svg xmlns="http://www.w3.org/2000/svg" xmlns:xlink="http://www.w3.org/1999/xlink" width="30pt" height="30.000001pt" viewBox="0 0 30 30.000001" version="1.2">
<defs>
<clipPath id="clip1">
  <path d="M 5.914062 5.070312 L 24.058594 5.070312 L 24.058594 23.941406 L 5.914062 23.941406 Z M 5.914062 5.070312 "/>
</clipPath>
</defs>
<g id="surface1">
<path style=" stroke:none;fill-rule:nonzero;fill:rgb(23.139954%,79.60968%,81.959534%);fill-opacity:1;" d="M 15 0.589844 C 14.085938 0.589844 13.179688 0.679688 12.285156 0.859375 C 11.386719 1.039062 10.515625 1.300781 9.671875 1.652344 C 8.828125 2 8.023438 2.429688 7.265625 2.9375 C 6.503906 3.445312 5.800781 4.023438 5.152344 4.667969 C 4.507812 5.316406 3.929688 6.019531 3.421875 6.78125 C 2.914062 7.539062 2.484375 8.34375 2.136719 9.1875 C 1.785156 10.03125 1.519531 10.902344 1.34375 11.800781 C 1.164062 12.695312 1.074219 13.601562 1.074219 14.515625 C 1.074219 15.429688 1.164062 16.335938 1.34375 17.234375 C 1.519531 18.128906 1.785156 19 2.136719 19.84375 C 2.484375 20.691406 2.914062 21.492188 3.421875 22.253906 C 3.929688 23.011719 4.507812 23.714844 5.152344 24.363281 C 5.800781 25.007812 6.503906 25.585938 7.265625 26.09375 C 8.023438 26.601562 8.828125 27.03125 9.671875 27.378906 C 10.515625 27.730469 11.386719 27.996094 12.285156 28.171875 C 13.179688 28.351562 14.085938 28.441406 15 28.441406 C 15.914062 28.441406 16.820312 28.351562 17.714844 28.171875 C 18.613281 27.996094 19.484375 27.730469 20.328125 27.378906 C 21.171875 27.03125 21.976562 26.601562 22.734375 26.09375 C 23.496094 25.585938 24.199219 25.007812 24.847656 24.363281 C 25.492188 23.714844 26.070312 23.011719 26.578125 22.253906 C 27.085938 21.492188 27.515625 20.691406 27.863281 19.84375 C 28.214844 19 28.480469 18.128906 28.65625 17.234375 C 28.835938 16.335938 28.925781 15.429688 28.925781 14.515625 C 28.925781 13.601562 28.835938 12.695312 28.65625 11.800781 C 28.480469 10.902344 28.214844 10.03125 27.863281 9.1875 C 27.515625 8.34375 27.085938 7.539062 26.578125 6.78125 C 26.070312 6.019531 25.492188 5.316406 24.847656 4.667969 C 24.199219 4.023438 23.496094 3.445312 22.734375 2.9375 C 21.976562 2.429688 21.171875 2 20.328125 1.652344 C 19.484375 1.300781 18.613281 1.039062 17.714844 0.859375 C 16.820312 0.679688 15.914062 0.589844 15 0.589844 Z M 15 0.589844 "/>
<g clip-path="url(#clip1)" clip-rule="nonzero">
<path style=" stroke:none;fill-rule:nonzero;fill:rgb(100%,100%,100%);fill-opacity:1;" d="M 24.050781 14.589844 C 24.054688 14.5625 24.058594 14.535156 24.058594 14.503906 L 24.058594 8.457031 C 24.0625 8.316406 24 8.214844 23.882812 8.144531 L 18.644531 5.121094 C 18.617188 5.105469 18.589844 5.09375 18.558594 5.085938 C 18.5 5.070312 18.441406 5.070312 18.378906 5.085938 C 18.351562 5.09375 18.320312 5.105469 18.292969 5.121094 L 14.988281 7.027344 L 11.6875 5.121094 C 11.660156 5.105469 11.632812 5.09375 11.601562 5.085938 C 11.542969 5.070312 11.484375 5.070312 11.421875 5.085938 C 11.394531 5.09375 11.363281 5.105469 11.335938 5.121094 L 6.09375 8.144531 C 5.972656 8.214844 5.914062 8.316406 5.914062 8.457031 L 5.914062 14.503906 C 5.914062 14.535156 5.917969 14.5625 5.925781 14.589844 L 5.925781 14.609375 C 5.933594 14.632812 5.941406 14.652344 5.949219 14.671875 C 5.949219 14.671875 5.949219 14.671875 5.949219 14.683594 L 11.1875 23.761719 C 11.257812 23.878906 11.359375 23.941406 11.496094 23.941406 C 11.636719 23.941406 11.738281 23.878906 11.808594 23.761719 L 14.988281 18.269531 L 18.15625 23.761719 C 18.226562 23.878906 18.328125 23.941406 18.46875 23.941406 C 18.605469 23.941406 18.707031 23.878906 18.777344 23.761719 L 24.011719 14.683594 L 24.011719 14.671875 C 24.023438 14.652344 24.03125 14.632812 24.039062 14.609375 Z M 14.632812 10.121094 L 12.488281 6.402344 L 14.632812 7.640625 Z M 14.574219 11.453125 L 13.023438 14.148438 L 6.890625 14.148438 L 11.507812 6.144531 Z M 14.988281 12.167969 L 16.332031 14.5 L 14.988281 16.824219 L 13.644531 14.5 Z M 16.953125 14.144531 L 15.402344 11.457031 L 18.46875 6.144531 L 23.085938 14.148438 Z M 23.34375 13.167969 L 19.441406 6.40625 L 23.34375 8.660156 Z M 17.492188 6.40625 L 15.347656 10.125 L 15.347656 7.644531 Z M 10.535156 6.40625 L 6.628906 13.171875 L 6.628906 8.660156 Z M 11.507812 22.867188 L 6.890625 14.863281 L 13.023438 14.863281 L 14.574219 17.542969 Z M 18.476562 22.867188 L 15.402344 17.554688 L 16.953125 14.871094 L 23.085938 14.871094 Z M 18.476562 22.867188 "/>
</g>
</g>
</svg>
